<?xml version="1.0" encoding="utf-8"?>
<!-- Generator: Adobe Illustrator 24.1.2, SVG Export Plug-In . SVG Version: 6.00 Build 0)  -->
<svg version="1.1" id="Layer_1" xmlns="http://www.w3.org/2000/svg" xmlns:xlink="http://www.w3.org/1999/xlink" x="0px" y="0px"
	 viewBox="0 0 377.8 52.7" style="enable-background:new 0 0 377.8 52.7;" xml:space="preserve">
<style type="text/css">
	.st0{fill:#333333;}
</style>
<g>
	<defs>
		<rect id="SVGID_1_" x="4.4" y="2.3" width="47.8" height="50.3"/>
	</defs>
	<clipPath id="SVGID_2_">
		<use xlink:href="#SVGID_1_"  style="overflow:visible;"/>
	</clipPath>
	<g transform="matrix(1 0 0 1 0 0)" style="clip-path:url(#SVGID_2_);enable-background:new    ;">
		
			<image style="overflow:visible;" width="76" height="80" xlink:href="A9DF0A3B.png"  transform="matrix(0.6287 0 0 0.6287 4.4239 2.3001)">
		</image>
	</g>
</g>
<g>
	<path class="st0" d="M63.5,18.7h7.1v2.2h-9.8V5.3h2.7V18.7z"/>
	<path class="st0" d="M79.3,20.8c-0.1-0.2-0.2-0.6-0.3-1.1c-0.8,0.9-1.8,1.3-3,1.3c-1.2,0-2.1-0.3-2.8-1c-0.7-0.7-1.1-1.5-1.1-2.5
		c0-1.2,0.5-2.2,1.4-2.8c0.9-0.7,2.2-1,3.9-1h1.6V13c0-0.6-0.2-1.1-0.5-1.4c-0.3-0.4-0.8-0.5-1.5-0.5c-0.6,0-1.1,0.1-1.5,0.4
		c-0.4,0.3-0.6,0.7-0.6,1.1h-2.6c0-0.6,0.2-1.2,0.6-1.8c0.4-0.6,1-1,1.7-1.3c0.7-0.3,1.5-0.5,2.4-0.5c1.4,0,2.4,0.3,3.2,1
		s1.2,1.6,1.2,2.9v5.2c0,1,0.1,1.9,0.4,2.5v0.2H79.3z M76.4,19c0.5,0,1-0.1,1.4-0.4s0.8-0.6,1-1v-2.2h-1.4c-1,0-1.7,0.2-2.2,0.5
		c-0.5,0.3-0.7,0.8-0.7,1.4c0,0.5,0.2,0.9,0.5,1.2C75.4,18.8,75.9,19,76.4,19z"/>
	<path class="st0" d="M83.8,15c0-1.8,0.4-3.2,1.3-4.3c0.8-1.1,2-1.6,3.4-1.6c1.3,0,2.4,0.5,3.1,1.4l0.1-1.2h2.3v11.2
		c0,1.5-0.5,2.7-1.4,3.6c-0.9,0.9-2.2,1.3-3.8,1.3c-0.8,0-1.7-0.2-2.5-0.5c-0.8-0.4-1.4-0.8-1.8-1.4l1.2-1.6
		c0.8,0.9,1.8,1.4,2.9,1.4c0.9,0,1.5-0.2,2-0.7s0.7-1.2,0.7-2.1v-0.8c-0.7,0.8-1.7,1.2-3,1.2c-1.4,0-2.5-0.5-3.3-1.6
		C84.2,18.4,83.8,16.9,83.8,15z M86.3,15.2c0,1.2,0.2,2.1,0.7,2.7c0.5,0.7,1.1,1,2,1c1,0,1.8-0.4,2.3-1.3v-5.1
		c-0.5-0.9-1.3-1.3-2.3-1.3c-0.9,0-1.5,0.3-2,1S86.3,13.9,86.3,15.2z"/>
	<path class="st0" d="M96.1,15c0-1.1,0.2-2.1,0.7-3.1s1.1-1.6,1.9-2.1s1.7-0.7,2.8-0.7c1.6,0,2.8,0.5,3.8,1.5s1.5,2.3,1.6,4l0,0.6
		c0,1.1-0.2,2.2-0.7,3.1c-0.4,0.9-1.1,1.6-1.9,2.1s-1.8,0.7-2.8,0.7c-1.6,0-2.9-0.5-3.9-1.6s-1.5-2.5-1.5-4.3V15z M98.7,15.2
		c0,1.2,0.2,2.1,0.7,2.8s1.2,1,2,1s1.6-0.3,2-1c0.5-0.7,0.7-1.7,0.7-3c0-1.2-0.3-2.1-0.8-2.8c-0.5-0.7-1.2-1-2-1c-0.8,0-1.5,0.3-2,1
		C99,12.8,98.7,13.8,98.7,15.2z"/>
	<path class="st0" d="M115.5,17.7c0-0.5-0.2-0.8-0.6-1.1c-0.4-0.2-1-0.5-1.9-0.6c-0.9-0.2-1.6-0.4-2.2-0.7c-1.3-0.6-1.9-1.5-1.9-2.7
		c0-1,0.4-1.8,1.3-2.5s1.9-1,3.2-1c1.4,0,2.5,0.3,3.3,1c0.9,0.7,1.3,1.6,1.3,2.7h-2.6c0-0.5-0.2-0.9-0.6-1.2
		c-0.4-0.3-0.9-0.5-1.5-0.5c-0.6,0-1,0.1-1.4,0.4c-0.4,0.3-0.5,0.6-0.5,1.1c0,0.4,0.2,0.7,0.5,0.9s1,0.4,2,0.7
		c1,0.2,1.8,0.5,2.4,0.8s1,0.7,1.3,1.1c0.3,0.4,0.4,1,0.4,1.6c0,1-0.4,1.9-1.3,2.5s-2,1-3.4,1c-0.9,0-1.8-0.2-2.5-0.5
		c-0.7-0.3-1.3-0.8-1.7-1.4c-0.4-0.6-0.6-1.2-0.6-1.9h2.5c0,0.6,0.3,1.1,0.7,1.4c0.4,0.3,1,0.5,1.7,0.5c0.7,0,1.2-0.1,1.6-0.4
		C115.3,18.5,115.5,18.1,115.5,17.7z"/>
	<path class="st0" d="M134.1,16.8c0-0.7-0.2-1.2-0.7-1.6c-0.5-0.4-1.3-0.7-2.6-1.1c-1.3-0.4-2.2-0.8-3-1.3c-1.4-0.9-2.1-2-2.1-3.5
		c0-1.3,0.5-2.3,1.5-3.1c1-0.8,2.3-1.2,4-1.2c1.1,0,2,0.2,2.9,0.6s1.5,1,2,1.7c0.5,0.7,0.7,1.6,0.7,2.4h-2.7c0-0.8-0.3-1.4-0.8-1.9
		c-0.5-0.5-1.2-0.7-2.2-0.7c-0.9,0-1.6,0.2-2.1,0.6s-0.7,0.9-0.7,1.6c0,0.6,0.3,1,0.8,1.4s1.4,0.8,2.6,1.1c1.2,0.4,2.2,0.8,2.9,1.2
		s1.3,1,1.6,1.6c0.3,0.6,0.5,1.3,0.5,2.1c0,1.3-0.5,2.3-1.5,3.1c-1,0.8-2.3,1.1-4,1.1c-1.1,0-2.2-0.2-3.1-0.6s-1.7-1-2.2-1.7
		c-0.5-0.7-0.8-1.6-0.8-2.6h2.7c0,0.9,0.3,1.6,0.9,2c0.6,0.5,1.4,0.7,2.5,0.7c0.9,0,1.6-0.2,2.1-0.6C133.9,18,134.1,17.5,134.1,16.8
		z"/>
	<path class="st0" d="M142.2,6.5v2.8h2v1.9h-2v6.4c0,0.4,0.1,0.8,0.3,1c0.2,0.2,0.5,0.3,0.9,0.3c0.3,0,0.6,0,0.9-0.1v2
		c-0.6,0.2-1.2,0.2-1.7,0.2c-2,0-3-1.1-3-3.3v-6.5h-1.9V9.3h1.9V6.5H142.2z"/>
	<path class="st0" d="M153.1,20.8c-0.1-0.2-0.2-0.6-0.3-1.1c-0.8,0.9-1.8,1.3-3,1.3c-1.2,0-2.1-0.3-2.8-1c-0.7-0.7-1.1-1.5-1.1-2.5
		c0-1.2,0.5-2.2,1.4-2.8c0.9-0.7,2.2-1,3.9-1h1.6V13c0-0.6-0.2-1.1-0.5-1.4c-0.3-0.4-0.8-0.5-1.5-0.5c-0.6,0-1.1,0.1-1.5,0.4
		c-0.4,0.3-0.6,0.7-0.6,1.1h-2.6c0-0.6,0.2-1.2,0.6-1.8c0.4-0.6,1-1,1.7-1.3c0.7-0.3,1.5-0.5,2.4-0.5c1.4,0,2.4,0.3,3.2,1
		s1.2,1.6,1.2,2.9v5.2c0,1,0.1,1.9,0.4,2.5v0.2H153.1z M150.3,19c0.5,0,1-0.1,1.4-0.4s0.8-0.6,1-1v-2.2h-1.4c-1,0-1.7,0.2-2.2,0.5
		c-0.5,0.3-0.7,0.8-0.7,1.4c0,0.5,0.2,0.9,0.5,1.2C149.3,18.8,149.7,19,150.3,19z"/>
	<path class="st0" d="M161.3,6.5v2.8h2v1.9h-2v6.4c0,0.4,0.1,0.8,0.3,1c0.2,0.2,0.5,0.3,0.9,0.3c0.3,0,0.6,0,0.9-0.1v2
		c-0.6,0.2-1.2,0.2-1.7,0.2c-2,0-3-1.1-3-3.3v-6.5h-1.9V9.3h1.9V6.5H161.3z"/>
	<path class="st0" d="M170.4,21.1c-1.6,0-3-0.5-4-1.6c-1-1-1.5-2.4-1.5-4.1V15c0-1.2,0.2-2.2,0.7-3.1s1.1-1.6,1.9-2.1
		c0.8-0.5,1.7-0.8,2.7-0.8c1.6,0,2.8,0.5,3.6,1.5s1.3,2.4,1.3,4.3v1h-7.5c0.1,1,0.4,1.7,1,2.3c0.6,0.6,1.3,0.8,2.1,0.8
		c1.2,0,2.2-0.5,2.9-1.4l1.4,1.3c-0.5,0.7-1.1,1.2-1.9,1.6S171.3,21.1,170.4,21.1z M170.1,11.2c-0.7,0-1.3,0.2-1.7,0.7
		c-0.4,0.5-0.7,1.2-0.8,2.1h4.9v-0.2c-0.1-0.9-0.3-1.5-0.7-2S170.8,11.2,170.1,11.2z"/>
	<path class="st0" d="M191.8,13.9h-6.4v4.8h7.5v2.2h-10.2V5.3h10.1v2.2h-7.4v4.3h6.4V13.9z"/>
	<path class="st0" d="M197.6,20.8H195V4.5h2.6V20.8z"/>
	<path class="st0" d="M205.5,21.1c-1.6,0-3-0.5-4-1.6c-1-1-1.5-2.4-1.5-4.1V15c0-1.2,0.2-2.2,0.7-3.1s1.1-1.6,1.9-2.1
		c0.8-0.5,1.7-0.8,2.7-0.8c1.6,0,2.8,0.5,3.6,1.5s1.3,2.4,1.3,4.3v1h-7.5c0.1,1,0.4,1.7,1,2.3c0.6,0.6,1.3,0.8,2.1,0.8
		c1.2,0,2.2-0.5,2.9-1.4l1.4,1.3c-0.5,0.7-1.1,1.2-1.9,1.6S206.4,21.1,205.5,21.1z M205.2,11.2c-0.7,0-1.3,0.2-1.7,0.7
		c-0.4,0.5-0.7,1.2-0.8,2.1h4.9v-0.2c-0.1-0.9-0.3-1.5-0.7-2S205.9,11.2,205.2,11.2z"/>
	<path class="st0" d="M216.9,19c0.6,0,1.2-0.2,1.6-0.6c0.4-0.4,0.7-0.8,0.7-1.4h2.4c0,0.7-0.3,1.4-0.7,2c-0.4,0.6-1,1.1-1.7,1.5
		c-0.7,0.4-1.5,0.5-2.3,0.5c-1.6,0-2.9-0.5-3.8-1.6c-0.9-1-1.4-2.5-1.4-4.3v-0.3c0-1.8,0.5-3.2,1.4-4.2s2.2-1.6,3.8-1.6
		c1.4,0,2.5,0.4,3.4,1.2s1.3,1.9,1.4,3.2h-2.4c0-0.7-0.3-1.2-0.7-1.6c-0.4-0.4-1-0.6-1.6-0.6c-0.8,0-1.5,0.3-1.9,0.9
		c-0.5,0.6-0.7,1.5-0.7,2.8v0.4c0,1.3,0.2,2.2,0.7,2.8C215.4,18.7,216,19,216.9,19z"/>
	<path class="st0" d="M226.8,6.5v2.8h2v1.9h-2v6.4c0,0.4,0.1,0.8,0.3,1c0.2,0.2,0.5,0.3,0.9,0.3c0.3,0,0.6,0,0.9-0.1v2
		c-0.6,0.2-1.2,0.2-1.7,0.2c-2,0-3-1.1-3-3.3v-6.5h-1.9V9.3h1.9V6.5H226.8z"/>
	<path class="st0" d="M236.9,11.7c-0.3-0.1-0.7-0.1-1.1-0.1c-1.2,0-2,0.5-2.4,1.4v7.9h-2.6V9.3h2.5l0.1,1.3c0.6-1,1.5-1.5,2.6-1.5
		c0.4,0,0.7,0,0.9,0.1L236.9,11.7z"/>
	<path class="st0" d="M237.6,15c0-1.1,0.2-2.1,0.7-3.1s1.1-1.6,1.9-2.1s1.7-0.7,2.8-0.7c1.6,0,2.8,0.5,3.8,1.5s1.5,2.3,1.6,4l0,0.6
		c0,1.1-0.2,2.2-0.7,3.1c-0.4,0.9-1.1,1.6-1.9,2.1c-0.8,0.5-1.8,0.7-2.8,0.7c-1.6,0-2.9-0.5-3.9-1.6c-1-1.1-1.5-2.5-1.5-4.3V15z
		 M240.2,15.2c0,1.2,0.2,2.1,0.7,2.8s1.2,1,2,1c0.9,0,1.6-0.3,2-1c0.5-0.7,0.7-1.7,0.7-3c0-1.2-0.3-2.1-0.8-2.8c-0.5-0.7-1.2-1-2-1
		c-0.8,0-1.5,0.3-2,1C240.5,12.8,240.2,13.8,240.2,15.2z"/>
	<path class="st0" d="M253,9.3l0.1,1.3c0.9-1,2-1.5,3.4-1.5c2.4,0,3.6,1.4,3.7,4.1v7.6h-2.6v-7.5c0-0.7-0.2-1.3-0.5-1.6
		c-0.3-0.4-0.8-0.5-1.6-0.5c-1,0-1.8,0.5-2.3,1.4v8.2h-2.6V9.3H253z"/>
	<path class="st0" d="M262.7,6.3c0-0.4,0.1-0.7,0.4-1c0.3-0.3,0.6-0.4,1.1-0.4s0.8,0.1,1.1,0.4c0.3,0.3,0.4,0.6,0.4,1
		c0,0.4-0.1,0.7-0.4,1s-0.6,0.4-1.1,0.4s-0.8-0.1-1.1-0.4S262.7,6.7,262.7,6.3z M265.5,20.8h-2.6V9.3h2.6V20.8z"/>
	<path class="st0" d="M273,19c0.6,0,1.2-0.2,1.6-0.6c0.4-0.4,0.7-0.8,0.7-1.4h2.4c0,0.7-0.3,1.4-0.7,2c-0.4,0.6-1,1.1-1.7,1.5
		c-0.7,0.4-1.5,0.5-2.3,0.5c-1.6,0-2.9-0.5-3.8-1.6c-0.9-1-1.4-2.5-1.4-4.3v-0.3c0-1.8,0.5-3.2,1.4-4.2s2.2-1.6,3.8-1.6
		c1.4,0,2.5,0.4,3.4,1.2c0.9,0.8,1.3,1.9,1.4,3.2h-2.4c0-0.7-0.3-1.2-0.7-1.6c-0.4-0.4-1-0.6-1.6-0.6c-0.8,0-1.5,0.3-1.9,0.9
		s-0.7,1.5-0.7,2.8v0.4c0,1.3,0.2,2.2,0.7,2.8C271.5,18.7,272.2,19,273,19z"/>
	<path class="st0" d="M288.1,15.1v5.8h-2.7V5.3h5.9c1.7,0,3.1,0.5,4.1,1.4c1,0.9,1.5,2.1,1.5,3.6c0,1.5-0.5,2.7-1.5,3.6
		c-1,0.8-2.4,1.3-4.2,1.3H288.1z M288.1,12.9h3.2c1,0,1.7-0.2,2.2-0.7c0.5-0.5,0.8-1.1,0.8-2c0-0.8-0.3-1.5-0.8-2
		c-0.5-0.5-1.2-0.8-2.1-0.8h-3.3V12.9z"/>
	<path class="st0" d="M301.7,10.6c0.8-1,1.9-1.5,3.2-1.5c2.5,0,3.7,1.4,3.7,4.2v7.5h-2.6v-7.4c0-0.8-0.2-1.4-0.5-1.7
		c-0.3-0.3-0.9-0.5-1.5-0.5c-1,0-1.8,0.5-2.3,1.4v8.2h-2.6V4.5h2.6V10.6z"/>
	<path class="st0" d="M315.3,17.1l2.3-7.8h2.8l-4.6,13.3c-0.7,1.9-1.9,2.9-3.6,2.9c-0.4,0-0.8-0.1-1.2-0.2v-2l0.5,0
		c0.7,0,1.1-0.1,1.5-0.4c0.3-0.2,0.6-0.6,0.8-1.2l0.4-1l-4.1-11.5h2.8L315.3,17.1z"/>
	<path class="st0" d="M328.4,17.7c0-0.5-0.2-0.8-0.6-1.1c-0.4-0.2-1-0.5-1.9-0.6c-0.9-0.2-1.6-0.4-2.2-0.7c-1.3-0.6-1.9-1.5-1.9-2.7
		c0-1,0.4-1.8,1.3-2.5c0.8-0.7,1.9-1,3.2-1c1.4,0,2.5,0.3,3.3,1c0.9,0.7,1.3,1.6,1.3,2.7h-2.6c0-0.5-0.2-0.9-0.6-1.2
		c-0.4-0.3-0.9-0.5-1.5-0.5c-0.6,0-1,0.1-1.4,0.4c-0.4,0.3-0.5,0.6-0.5,1.1c0,0.4,0.2,0.7,0.5,0.9s1,0.4,2,0.7
		c1,0.2,1.8,0.5,2.4,0.8c0.6,0.3,1,0.7,1.3,1.1c0.3,0.4,0.4,1,0.4,1.6c0,1-0.4,1.9-1.3,2.5s-2,1-3.4,1c-0.9,0-1.8-0.2-2.5-0.5
		c-0.7-0.3-1.3-0.8-1.7-1.4c-0.4-0.6-0.6-1.2-0.6-1.9h2.5c0,0.6,0.3,1.1,0.7,1.4c0.4,0.3,1,0.5,1.7,0.5c0.7,0,1.2-0.1,1.6-0.4
		C328.2,18.5,328.4,18.1,328.4,17.7z"/>
	<path class="st0" d="M333.2,6.3c0-0.4,0.1-0.7,0.4-1c0.3-0.3,0.6-0.4,1.1-0.4c0.5,0,0.8,0.1,1.1,0.4c0.3,0.3,0.4,0.6,0.4,1
		c0,0.4-0.1,0.7-0.4,1s-0.6,0.4-1.1,0.4c-0.5,0-0.8-0.1-1.1-0.4S333.2,6.7,333.2,6.3z M336,20.8h-2.6V9.3h2.6V20.8z"/>
	<path class="st0" d="M343.5,19c0.6,0,1.2-0.2,1.6-0.6c0.4-0.4,0.7-0.8,0.7-1.4h2.4c0,0.7-0.3,1.4-0.7,2c-0.4,0.6-1,1.1-1.7,1.5
		c-0.7,0.4-1.5,0.5-2.3,0.5c-1.6,0-2.9-0.5-3.8-1.6c-0.9-1-1.4-2.5-1.4-4.3v-0.3c0-1.8,0.5-3.2,1.4-4.2c0.9-1.1,2.2-1.6,3.8-1.6
		c1.4,0,2.5,0.4,3.4,1.2c0.9,0.8,1.3,1.9,1.4,3.2h-2.4c0-0.7-0.3-1.2-0.7-1.6c-0.4-0.4-1-0.6-1.6-0.6c-0.8,0-1.5,0.3-1.9,0.9
		s-0.7,1.5-0.7,2.8v0.4c0,1.3,0.2,2.2,0.7,2.8C342,18.7,342.7,19,343.5,19z"/>
	<path class="st0" d="M357.1,20.8c-0.1-0.2-0.2-0.6-0.3-1.1c-0.8,0.9-1.8,1.3-3,1.3c-1.2,0-2.1-0.3-2.8-1c-0.7-0.7-1.1-1.5-1.1-2.5
		c0-1.2,0.5-2.2,1.4-2.8c0.9-0.7,2.2-1,3.9-1h1.6V13c0-0.6-0.2-1.1-0.5-1.4c-0.3-0.4-0.8-0.5-1.5-0.5c-0.6,0-1.1,0.1-1.5,0.4
		c-0.4,0.3-0.6,0.7-0.6,1.1h-2.6c0-0.6,0.2-1.2,0.6-1.8c0.4-0.6,1-1,1.7-1.3c0.7-0.3,1.5-0.5,2.4-0.5c1.4,0,2.4,0.3,3.2,1
		s1.2,1.6,1.2,2.9v5.2c0,1,0.1,1.9,0.4,2.5v0.2H357.1z M354.3,19c0.5,0,1-0.1,1.4-0.4s0.8-0.6,1-1v-2.2h-1.4c-1,0-1.7,0.2-2.2,0.5
		c-0.5,0.3-0.7,0.8-0.7,1.4c0,0.5,0.2,0.9,0.5,1.2C353.3,18.8,353.7,19,354.3,19z"/>
	<path class="st0" d="M364.8,20.8h-2.6V4.5h2.6V20.8z"/>
	<path class="st0" d="M63.5,41.3v5.8h-2.7V31.5h5.9c1.7,0,3.1,0.5,4.1,1.4c1,0.9,1.5,2.1,1.5,3.6c0,1.5-0.5,2.7-1.5,3.6
		c-1,0.8-2.4,1.3-4.2,1.3H63.5z M63.5,39.1h3.2c1,0,1.7-0.2,2.2-0.7c0.5-0.5,0.8-1.1,0.8-2c0-0.8-0.3-1.5-0.8-2
		c-0.5-0.5-1.2-0.8-2.1-0.8h-3.3V39.1z"/>
	<path class="st0" d="M77.3,47.1h-2.6V30.7h2.6V47.1z"/>
	<path class="st0" d="M87,47.1c-0.1-0.2-0.2-0.6-0.3-1.1c-0.8,0.9-1.8,1.3-3,1.3c-1.2,0-2.1-0.3-2.8-1c-0.7-0.7-1.1-1.5-1.1-2.5
		c0-1.2,0.5-2.2,1.4-2.8c0.9-0.7,2.2-1,3.9-1h1.6v-0.8c0-0.6-0.2-1.1-0.5-1.4c-0.3-0.4-0.8-0.5-1.5-0.5c-0.6,0-1.1,0.1-1.5,0.4
		c-0.4,0.3-0.6,0.7-0.6,1.1H80c0-0.6,0.2-1.2,0.6-1.8c0.4-0.5,1-1,1.7-1.3c0.7-0.3,1.5-0.5,2.4-0.5c1.4,0,2.4,0.3,3.2,1
		c0.8,0.7,1.2,1.6,1.2,2.9v5.2c0,1,0.1,1.9,0.4,2.5v0.2H87z M84.2,45.2c0.5,0,1-0.1,1.4-0.4c0.5-0.2,0.8-0.6,1-1v-2.2h-1.4
		c-1,0-1.7,0.2-2.2,0.5c-0.5,0.3-0.7,0.8-0.7,1.4c0,0.5,0.2,0.9,0.5,1.2C83.2,45,83.6,45.2,84.2,45.2z"/>
	<path class="st0" d="M94.3,35.5l0.1,1.3c0.9-1,2-1.5,3.4-1.5c2.4,0,3.6,1.4,3.7,4.1v7.6h-2.6v-7.5c0-0.7-0.2-1.3-0.5-1.6
		c-0.3-0.4-0.8-0.5-1.6-0.5c-1,0-1.8,0.5-2.3,1.4v8.2h-2.6V35.5H94.3z"/>
	<path class="st0" d="M106.5,35.5l0.1,1.3c0.9-1,2-1.5,3.4-1.5c2.4,0,3.6,1.4,3.7,4.1v7.6H111v-7.5c0-0.7-0.2-1.3-0.5-1.6
		s-0.8-0.5-1.6-0.5c-1,0-1.8,0.5-2.3,1.4v8.2H104V35.5H106.5z"/>
	<path class="st0" d="M116.2,32.5c0-0.4,0.1-0.7,0.4-1c0.3-0.3,0.6-0.4,1.1-0.4s0.8,0.1,1.1,0.4c0.3,0.3,0.4,0.6,0.4,1
		c0,0.4-0.1,0.7-0.4,1c-0.3,0.3-0.6,0.4-1.1,0.4s-0.8-0.1-1.1-0.4C116.4,33.2,116.2,32.9,116.2,32.5z M119,47.1h-2.6V35.5h2.6V47.1z
		"/>
	<path class="st0" d="M124.2,35.5l0.1,1.3c0.9-1,2-1.5,3.4-1.5c2.4,0,3.6,1.4,3.7,4.1v7.6h-2.6v-7.5c0-0.7-0.2-1.3-0.5-1.6
		c-0.3-0.4-0.8-0.5-1.6-0.5c-1,0-1.8,0.5-2.3,1.4v8.2h-2.6V35.5H124.2z"/>
	<path class="st0" d="M133.5,41.2c0-1.8,0.4-3.2,1.3-4.3c0.8-1.1,2-1.6,3.4-1.6c1.3,0,2.4,0.5,3.1,1.4l0.1-1.2h2.3v11.2
		c0,1.5-0.5,2.7-1.4,3.6c-0.9,0.9-2.2,1.3-3.8,1.3c-0.8,0-1.7-0.2-2.5-0.5s-1.4-0.8-1.8-1.4l1.2-1.6c0.8,0.9,1.8,1.4,2.9,1.4
		c0.9,0,1.5-0.2,2-0.7c0.5-0.5,0.7-1.1,0.7-2.1V46c-0.7,0.8-1.7,1.2-3,1.2c-1.4,0-2.5-0.5-3.3-1.6C133.9,44.6,133.5,43.1,133.5,41.2
		z M136.1,41.4c0,1.2,0.2,2.1,0.7,2.7c0.5,0.7,1.1,1,2,1c1,0,1.8-0.4,2.3-1.3v-5.1c-0.5-0.9-1.3-1.3-2.3-1.3c-0.9,0-1.5,0.3-2,1
		C136.3,39.1,136.1,40.1,136.1,41.4z"/>
	<path class="st0" d="M154.8,41.3v5.8h-2.7V31.5h5.9c1.7,0,3.1,0.5,4.1,1.4c1,0.9,1.5,2.1,1.5,3.6c0,1.5-0.5,2.7-1.5,3.6
		c-1,0.8-2.4,1.3-4.2,1.3H154.8z M154.8,39.1h3.2c1,0,1.7-0.2,2.2-0.7c0.5-0.5,0.8-1.1,0.8-2c0-0.8-0.3-1.5-0.8-2
		c-0.5-0.5-1.2-0.8-2.1-0.8h-3.3V39.1z"/>
	<path class="st0" d="M171.8,37.9c-0.3-0.1-0.7-0.1-1.1-0.1c-1.2,0-2,0.5-2.4,1.4v7.9h-2.6V35.5h2.5l0.1,1.3c0.6-1,1.5-1.5,2.6-1.5
		c0.4,0,0.7,0.1,0.9,0.1L171.8,37.9z"/>
	<path class="st0" d="M172.6,41.2c0-1.1,0.2-2.1,0.7-3.1c0.4-0.9,1.1-1.6,1.9-2.1c0.8-0.5,1.7-0.7,2.8-0.7c1.6,0,2.8,0.5,3.8,1.5
		s1.5,2.3,1.6,4l0,0.6c0,1.1-0.2,2.2-0.7,3.1c-0.4,0.9-1.1,1.6-1.9,2.1s-1.8,0.7-2.8,0.7c-1.6,0-2.9-0.5-3.9-1.6
		c-1-1.1-1.5-2.5-1.5-4.3V41.2z M175.2,41.4c0,1.2,0.2,2.1,0.7,2.8c0.5,0.7,1.2,1,2,1c0.9,0,1.6-0.3,2-1c0.5-0.7,0.7-1.7,0.7-3
		c0-1.2-0.3-2.1-0.8-2.8c-0.5-0.7-1.2-1-2-1c-0.8,0-1.5,0.3-2,1C175.4,39.1,175.2,40.1,175.2,41.4z"/>
	<path class="st0" d="M190.3,45.2c0.6,0,1.2-0.2,1.6-0.6c0.4-0.4,0.7-0.8,0.7-1.4h2.4c0,0.7-0.3,1.4-0.7,2c-0.4,0.6-1,1.1-1.7,1.5
		c-0.7,0.4-1.5,0.5-2.3,0.5c-1.6,0-2.9-0.5-3.8-1.6c-0.9-1-1.4-2.5-1.4-4.3v-0.3c0-1.8,0.5-3.2,1.4-4.2c0.9-1.1,2.2-1.6,3.8-1.6
		c1.4,0,2.5,0.4,3.4,1.2c0.9,0.8,1.3,1.9,1.4,3.2h-2.4c0-0.7-0.3-1.2-0.7-1.6c-0.4-0.4-1-0.6-1.6-0.6c-0.8,0-1.5,0.3-1.9,0.9
		c-0.5,0.6-0.7,1.5-0.7,2.8v0.4c0,1.3,0.2,2.2,0.7,2.8C188.7,44.9,189.4,45.2,190.3,45.2z"/>
	<path class="st0" d="M202,47.3c-1.6,0-3-0.5-4-1.6c-1-1-1.5-2.4-1.5-4.1v-0.3c0-1.2,0.2-2.2,0.7-3.1c0.4-0.9,1.1-1.6,1.9-2.1
		c0.8-0.5,1.7-0.8,2.7-0.8c1.6,0,2.8,0.5,3.6,1.5s1.3,2.4,1.3,4.3v1h-7.5c0.1,1,0.4,1.7,1,2.3c0.6,0.6,1.3,0.8,2.1,0.8
		c1.2,0,2.2-0.5,2.9-1.4l1.4,1.3c-0.5,0.7-1.1,1.2-1.9,1.6C203.9,47.1,203,47.3,202,47.3z M201.7,37.4c-0.7,0-1.3,0.3-1.7,0.7
		c-0.4,0.5-0.7,1.2-0.8,2.1h4.9V40c-0.1-0.9-0.3-1.5-0.7-2C203,37.6,202.4,37.4,201.7,37.4z"/>
	<path class="st0" d="M215.1,43.9c0-0.5-0.2-0.8-0.6-1.1c-0.4-0.2-1-0.5-1.9-0.6c-0.9-0.2-1.6-0.4-2.2-0.7c-1.3-0.6-1.9-1.5-1.9-2.7
		c0-1,0.4-1.8,1.3-2.5c0.8-0.7,1.9-1,3.2-1c1.4,0,2.5,0.3,3.3,1c0.9,0.7,1.3,1.6,1.3,2.7H215c0-0.5-0.2-0.9-0.6-1.2
		c-0.4-0.3-0.9-0.5-1.5-0.5c-0.6,0-1,0.1-1.4,0.4c-0.4,0.3-0.5,0.6-0.5,1.1c0,0.4,0.2,0.7,0.5,0.9c0.3,0.2,1,0.4,2,0.7
		c1,0.2,1.8,0.5,2.4,0.8c0.6,0.3,1,0.7,1.3,1.1c0.3,0.4,0.4,1,0.4,1.6c0,1-0.4,1.9-1.3,2.5c-0.9,0.6-2,1-3.4,1
		c-0.9,0-1.8-0.2-2.5-0.5s-1.3-0.8-1.7-1.4c-0.4-0.6-0.6-1.2-0.6-1.9h2.5c0,0.6,0.3,1.1,0.7,1.4c0.4,0.3,1,0.5,1.7,0.5
		c0.7,0,1.2-0.1,1.6-0.4C215,44.7,215.1,44.3,215.1,43.9z"/>
	<path class="st0" d="M226.4,43.9c0-0.5-0.2-0.8-0.6-1.1c-0.4-0.2-1-0.5-1.9-0.6c-0.9-0.2-1.6-0.4-2.2-0.7c-1.3-0.6-1.9-1.5-1.9-2.7
		c0-1,0.4-1.8,1.3-2.5c0.8-0.7,1.9-1,3.2-1c1.4,0,2.5,0.3,3.3,1c0.9,0.7,1.3,1.6,1.3,2.7h-2.6c0-0.5-0.2-0.9-0.6-1.2
		c-0.4-0.3-0.9-0.5-1.5-0.5c-0.6,0-1,0.1-1.4,0.4c-0.4,0.3-0.5,0.6-0.5,1.1c0,0.4,0.2,0.7,0.5,0.9c0.3,0.2,1,0.4,2,0.7
		c1,0.2,1.8,0.5,2.4,0.8c0.6,0.3,1,0.7,1.3,1.1c0.3,0.4,0.4,1,0.4,1.6c0,1-0.4,1.9-1.3,2.5c-0.9,0.6-2,1-3.4,1
		c-0.9,0-1.8-0.2-2.5-0.5s-1.3-0.8-1.7-1.4c-0.4-0.6-0.6-1.2-0.6-1.9h2.5c0,0.6,0.3,1.1,0.7,1.4c0.4,0.3,1,0.5,1.7,0.5
		c0.7,0,1.2-0.1,1.6-0.4C226.2,44.7,226.4,44.3,226.4,43.9z"/>
	<path class="st0" d="M245,43.1c0-0.7-0.2-1.2-0.7-1.6c-0.5-0.4-1.3-0.7-2.6-1.1c-1.3-0.4-2.2-0.8-3-1.3c-1.4-0.9-2.1-2-2.1-3.5
		c0-1.3,0.5-2.3,1.5-3.1c1-0.8,2.3-1.2,4-1.2c1.1,0,2,0.2,2.9,0.6c0.8,0.4,1.5,1,2,1.7c0.5,0.7,0.7,1.6,0.7,2.4H245
		c0-0.8-0.3-1.4-0.8-1.9s-1.2-0.7-2.2-0.7c-0.9,0-1.6,0.2-2.1,0.6c-0.5,0.4-0.7,0.9-0.7,1.6c0,0.6,0.3,1,0.8,1.4
		c0.5,0.4,1.4,0.8,2.6,1.1c1.2,0.4,2.2,0.8,2.9,1.2c0.7,0.5,1.3,1,1.6,1.6c0.3,0.6,0.5,1.3,0.5,2.1c0,1.3-0.5,2.3-1.5,3.1
		c-1,0.8-2.3,1.1-4,1.1c-1.1,0-2.2-0.2-3.1-0.6s-1.7-1-2.2-1.7c-0.5-0.7-0.8-1.6-0.8-2.6h2.7c0,0.9,0.3,1.6,0.9,2
		c0.6,0.5,1.4,0.7,2.5,0.7c0.9,0,1.6-0.2,2.1-0.6C244.8,44.2,245,43.7,245,43.1z"/>
	<path class="st0" d="M253.9,43.3l2.3-7.8h2.8l-4.6,13.3c-0.7,1.9-1.9,2.9-3.6,2.9c-0.4,0-0.8-0.1-1.2-0.2v-2l0.5,0
		c0.7,0,1.1-0.1,1.5-0.4c0.3-0.2,0.6-0.6,0.8-1.2l0.4-1l-4.1-11.5h2.8L253.9,43.3z"/>
	<path class="st0" d="M267,43.9c0-0.5-0.2-0.8-0.6-1.1c-0.4-0.2-1-0.5-1.9-0.6c-0.9-0.2-1.6-0.4-2.2-0.7c-1.3-0.6-1.9-1.5-1.9-2.7
		c0-1,0.4-1.8,1.3-2.5c0.8-0.7,1.9-1,3.2-1c1.4,0,2.5,0.3,3.3,1c0.9,0.7,1.3,1.6,1.3,2.7h-2.6c0-0.5-0.2-0.9-0.6-1.2
		c-0.4-0.3-0.9-0.5-1.5-0.5c-0.6,0-1,0.1-1.4,0.4c-0.4,0.3-0.5,0.6-0.5,1.1c0,0.4,0.2,0.7,0.5,0.9c0.3,0.2,1,0.4,2,0.7
		c1,0.2,1.8,0.5,2.4,0.8c0.6,0.3,1,0.7,1.3,1.1c0.3,0.4,0.4,1,0.4,1.6c0,1-0.4,1.9-1.3,2.5c-0.9,0.6-2,1-3.4,1
		c-0.9,0-1.8-0.2-2.5-0.5s-1.3-0.8-1.7-1.4c-0.4-0.6-0.6-1.2-0.6-1.9h2.5c0,0.6,0.3,1.1,0.7,1.4s1,0.5,1.7,0.5
		c0.7,0,1.2-0.1,1.6-0.4C266.8,44.7,267,44.3,267,43.9z"/>
	<path class="st0" d="M275,32.7v2.8h2v1.9h-2v6.4c0,0.4,0.1,0.8,0.3,1c0.2,0.2,0.5,0.3,0.9,0.3c0.3,0,0.6,0,0.9-0.1v2
		c-0.6,0.2-1.2,0.2-1.7,0.2c-2,0-3-1.1-3-3.3v-6.5h-1.9v-1.9h1.9v-2.8H275z"/>
	<path class="st0" d="M284.1,47.3c-1.6,0-3-0.5-4-1.6c-1-1-1.5-2.4-1.5-4.1v-0.3c0-1.2,0.2-2.2,0.7-3.1c0.4-0.9,1.1-1.6,1.9-2.1
		c0.8-0.5,1.7-0.8,2.7-0.8c1.6,0,2.8,0.5,3.6,1.5s1.3,2.4,1.3,4.3v1h-7.5c0.1,1,0.4,1.7,1,2.3c0.6,0.6,1.3,0.8,2.1,0.8
		c1.2,0,2.2-0.5,2.9-1.4l1.4,1.3c-0.5,0.7-1.1,1.2-1.9,1.6C286,47.1,285.1,47.3,284.1,47.3z M283.8,37.4c-0.7,0-1.3,0.3-1.7,0.7
		c-0.4,0.5-0.7,1.2-0.8,2.1h4.9V40c-0.1-0.9-0.3-1.5-0.7-2C285.1,37.6,284.5,37.4,283.8,37.4z"/>
	<path class="st0" d="M293.2,35.5l0.1,1.2c0.8-0.9,1.9-1.4,3.3-1.4c1.5,0,2.6,0.6,3.2,1.8c0.8-1.2,2-1.8,3.5-1.8
		c1.3,0,2.2,0.4,2.8,1.1c0.6,0.7,0.9,1.7,1,3.1v7.6h-2.6v-7.5c0-0.7-0.2-1.3-0.5-1.6c-0.3-0.3-0.9-0.5-1.6-0.5
		c-0.6,0-1.1,0.2-1.4,0.5c-0.4,0.3-0.6,0.7-0.8,1.2l0,7.9h-2.6v-7.6c0-1.4-0.7-2-2.1-2c-1,0-1.8,0.4-2.2,1.3v8.4h-2.6V35.5H293.2z"
		/>
</g>
</svg>
